<?xml version="1.0" encoding="utf-8" ?>
<svg baseProfile="full" height="42px" version="1.1" width="146px" xmlns="http://www.w3.org/2000/svg" xmlns:ev="http://www.w3.org/2001/xml-events" xmlns:xlink="http://www.w3.org/1999/xlink"><defs /><path d="M 143,3 L 145,3 Z" fill="white" /><path d="M 136,3 L 140,3 Z" fill="white" /><path d="M 124,3 L 133,3 Z" fill="white" /><path d="M 114,3 L 120,3 Z" fill="white" /><path d="M 104,3 L 108,3 Z" fill="white" /><path d="M 96,3 L 102,3 Z" fill="white" /><path d="M 90,3 L 92,3 Z" fill="white" /><path d="M 82,3 L 88,3 Z" fill="white" /><path d="M 73,3 L 78,3 L 79,4 L 79,5 L 78,6 L 73,6 L 73,41 L 79,41 L 80,40 L 81,40 L 82,41 L 88,41 L 88,34 L 89,33 L 90,34 L 90,41 L 102,41 L 102,35 L 103,34 L 104,35 L 104,41 L 111,41 L 111,40 L 110,39 L 110,38 L 112,36 L 113,37 L 113,41 L 116,41 L 116,15 L 117,14 L 118,15 L 118,16 L 119,17 L 119,20 L 118,21 L 118,41 L 118,22 L 119,21 L 120,22 L 120,41 L 123,41 L 123,27 L 124,26 L 125,27 L 125,41 L 125,23 L 124,22 L 125,21 L 124,20 L 125,19 L 125,17 L 126,16 L 127,17 L 127,41 L 134,41 L 135,40 L 136,41 L 141,41 L 140,40 L 141,39 L 141,34 L 142,33 L 143,34 L 143,41 L 145,41 L 145,6 L 143,6 L 143,25 L 142,26 L 141,25 L 141,22 L 140,21 L 141,20 L 141,8 L 140,7 L 140,6 L 141,5 L 140,6 L 137,6 L 136,5 L 135,6 L 136,7 L 136,8 L 135,9 L 135,15 L 134,16 L 133,15 L 133,6 L 124,6 L 123,5 L 124,6 L 123,7 L 123,9 L 122,10 L 120,8 L 120,7 L 121,6 L 113,6 L 113,10 L 112,11 L 111,11 L 110,10 L 110,9 L 111,8 L 111,7 L 109,7 L 108,6 L 109,5 L 110,5 L 109,5 L 108,6 L 104,6 L 104,13 L 103,14 L 102,13 L 102,6 L 96,6 L 96,29 L 95,30 L 94,29 L 94,7 L 93,7 L 92,6 L 90,6 L 90,14 L 89,15 L 88,14 L 88,6 L 82,6 L 82,24 L 81,25 L 80,24 L 80,9 L 79,8 L 80,7 L 80,6 L 79,5 L 79,4 L 78,3 Z" fill="white" /><path d="M 55,3 L 69,3 Z" fill="white" /><path d="M 47,3 L 51,3 Z" fill="white" /><path d="M 39,3 L 44,3 Z" fill="white" /><path d="M 31,3 L 35,3 Z" fill="white" /><path d="M 19,2 L 19,5 L 20,5 L 19,4 Z" fill="white" /><path d="M 6,0 L 7,1 L 7,2 L 6,3 L 6,5 L 5,6 L 4,5 L 4,3 L 4,5 L 5,6 L 4,7 L 4,8 L 3,9 L 3,10 L 2,11 L 1,10 L 1,11 L 0,12 L 0,15 L 1,16 L 1,17 L 1,16 L 2,15 L 3,16 L 3,18 L 2,19 L 1,19 L 1,21 L 0,22 L 0,28 L 1,29 L 0,30 L 1,29 L 2,30 L 2,32 L 1,33 L 0,33 L 0,41 L 4,41 L 4,32 L 5,31 L 5,29 L 6,28 L 7,29 L 7,39 L 6,40 L 6,41 L 7,40 L 8,40 L 9,41 L 10,40 L 13,40 L 14,41 L 15,40 L 16,40 L 17,41 L 17,40 L 16,39 L 16,28 L 15,27 L 15,26 L 16,25 L 18,27 L 18,28 L 19,29 L 19,30 L 18,31 L 19,32 L 19,41 L 24,41 L 24,33 L 22,33 L 21,32 L 21,30 L 22,29 L 23,30 L 24,30 L 26,32 L 26,41 L 26,40 L 27,39 L 28,40 L 28,41 L 29,41 L 30,40 L 31,41 L 34,41 L 35,40 L 36,41 L 37,41 L 37,39 L 36,38 L 36,37 L 37,36 L 37,29 L 38,28 L 39,29 L 39,41 L 51,41 L 52,40 L 53,41 L 70,41 L 70,33 L 71,32 L 71,28 L 70,27 L 70,21 L 71,20 L 71,16 L 70,15 L 70,6 L 55,6 L 55,23 L 54,24 L 53,23 L 53,9 L 52,8 L 53,7 L 53,6 L 52,5 L 51,5 L 50,6 L 39,6 L 39,17 L 38,18 L 37,17 L 37,12 L 36,11 L 36,9 L 37,8 L 37,6 L 36,6 L 35,5 L 34,6 L 31,6 L 30,5 L 28,7 L 28,8 L 27,9 L 27,11 L 26,12 L 26,15 L 27,16 L 27,31 L 26,32 L 25,31 L 25,17 L 25,27 L 24,28 L 23,27 L 23,18 L 22,17 L 22,16 L 23,15 L 23,10 L 22,9 L 22,8 L 20,8 L 19,7 L 18,8 L 17,7 L 17,2 L 16,1 L 17,0 L 16,1 L 15,0 L 15,2 L 14,3 L 13,2 L 13,0 L 10,0 L 10,2 L 9,3 L 8,2 L 8,1 L 7,1 Z" fill="white" /></svg>