<?xml version="1.0" standalone="no"?>
<!DOCTYPE svg PUBLIC "-//W3C//DTD SVG 20010904//EN"
 "http://www.w3.org/TR/2001/REC-SVG-20010904/DTD/svg10.dtd">
<svg version="1.0" xmlns="http://www.w3.org/2000/svg"
 width="142.000000pt" height="52.000000pt" viewBox="0 0 142.000000 52.000000"
 preserveAspectRatio="xMidYMid meet">

<g transform="translate(0.000000,52.000000) scale(0.100000,-0.100000)"
fill="#000000" stroke="none">
<path d="M317 394 c-4 -4 -7 -20 -7 -35 0 -15 -5 -31 -12 -35 -11 -7 -42 23
-50 47 -2 7 -13 9 -26 5 -19 -7 -21 -12 -16 -47 8 -49 -15 -63 -50 -30 -20 19
-24 19 -42 7 -18 -14 -18 -15 -1 -45 28 -47 13 -57 -49 -34 -6 2 -16 -8 -22
-21 -10 -24 -9 -27 18 -41 42 -22 38 -41 -10 -49 -34 -5 -40 -10 -40 -31 0
-24 3 -25 60 -25 60 0 60 0 60 29 0 97 103 190 211 191 100 0 200 -84 216
-182 l6 -38 59 0 c59 0 59 0 56 28 -3 23 -8 27 -40 30 -30 3 -38 7 -38 23 0
11 11 24 25 31 18 8 25 18 23 32 -3 18 -9 21 -45 18 -51 -4 -59 8 -32 43 20
24 20 28 6 43 -15 15 -19 14 -48 -7 -27 -20 -33 -21 -45 -9 -12 11 -12 21 -4
43 8 22 8 30 -2 37 -23 14 -35 9 -48 -23 -8 -19 -18 -28 -27 -25 -8 4 -18 6
-23 6 -5 0 -10 15 -12 33 -2 23 -8 33 -23 35 -12 2 -24 0 -28 -4z"/>
<path d="M735 305 c-34 -33 -35 -97 -3 -119 35 -25 83 -20 107 10 32 41 28 62
-14 62 -23 0 -35 -5 -35 -14 0 -8 5 -14 10 -14 6 0 10 -7 10 -15 0 -23 -47
-19 -60 6 -24 45 10 90 52 68 11 -6 27 -8 36 -4 15 6 14 9 -7 26 -32 26 -67
24 -96 -6z"/>
<path d="M890 245 l0 -75 34 0 c48 0 64 28 20 34 -26 4 -30 26 -5 26 27 0 27
26 1 33 -27 7 -26 25 2 29 41 6 32 28 -11 28 l-41 0 0 -75z"/>
<path d="M1000 250 c0 -80 8 -89 69 -74 39 10 53 42 31 69 -6 8 -9 19 -5 25 3
5 3 19 0 30 -5 16 -15 20 -51 20 l-44 0 0 -70z m64 19 c-10 -16 -24 -9 -24 12
0 18 2 19 15 9 8 -7 12 -16 9 -21z m5 -42 c12 -15 5 -27 -16 -27 -7 0 -13 9
-13 20 0 23 13 26 29 7z"/>
<path d="M1135 310 c-3 -6 1 -12 9 -15 9 -3 23 -7 31 -10 12 -4 10 -14 -15
-53 -16 -27 -30 -52 -30 -56 0 -3 25 -6 55 -6 47 0 55 3 55 19 0 14 -5 18 -19
14 -33 -8 -33 16 -2 67 l31 50 -55 0 c-29 0 -57 -5 -60 -10z"/>
<path d="M1279 318 c0 -2 -2 -36 -4 -75 l-5 -73 40 0 c44 0 57 23 20 35 -11 3
-20 11 -20 16 0 5 9 9 20 9 11 0 20 7 20 15 0 8 -9 15 -20 15 -11 0 -20 7 -20
15 0 8 9 15 20 15 11 0 20 7 20 15 0 10 -11 15 -35 15 -19 0 -35 -1 -36 -2z"/>
<path d="M717 144 c-4 -4 -7 -25 -7 -46 0 -33 3 -38 24 -38 24 0 51 22 40 33
-4 4 -7 17 -8 29 -1 23 -34 37 -49 22z m33 -24 c0 -5 -2 -10 -4 -10 -3 0 -8 5
-11 10 -3 6 -1 10 4 10 6 0 11 -4 11 -10z m5 -30 c3 -5 -1 -10 -9 -10 -9 0
-16 5 -16 10 0 6 4 10 9 10 6 0 13 -4 16 -10z"/>
<path d="M800 105 c0 -38 3 -45 20 -45 11 0 20 5 20 10 0 6 -7 10 -15 10 -8 0
-15 5 -15 10 0 6 8 10 17 10 15 0 14 2 -3 15 -17 13 -17 14 -1 15 24 0 22 20
-3 20 -17 0 -20 -7 -20 -45z"/>
<path d="M860 105 c0 -38 3 -45 20 -45 11 0 20 5 20 10 0 6 -4 10 -10 10 -5 0
-10 16 -10 35 0 19 -4 35 -10 35 -5 0 -10 -20 -10 -45z"/>
<path d="M918 105 c-3 -41 -1 -45 19 -45 25 0 31 15 11 24 -10 5 -10 7 0 12
10 5 10 9 1 20 -8 10 -8 14 0 14 6 0 11 5 11 10 0 6 -9 10 -19 10 -15 0 -20
-9 -23 -45z"/>
<path d="M990 105 c0 -37 3 -45 18 -45 20 0 52 29 52 48 0 17 -30 42 -51 42
-16 0 -19 -7 -19 -45z m44 9 c8 -20 -1 -34 -20 -34 -8 0 -14 10 -14 25 0 28
24 34 34 9z"/>
<path d="M1110 142 c0 -4 6 -16 14 -27 7 -11 16 -29 19 -40 4 -18 5 -18 6 3 0
12 8 34 17 47 9 14 12 25 6 25 -6 0 -12 -6 -15 -12 -4 -10 -7 -10 -18 0 -15
14 -29 16 -29 4z"/>
<path d="M1200 105 c0 -38 3 -45 20 -45 22 0 27 15 8 23 -10 4 -10 8 1 15 11
8 10 12 -5 21 -17 9 -17 10 -1 11 9 0 17 5 17 10 0 6 -9 10 -20 10 -17 0 -20
-7 -20 -45z"/>
<path d="M1270 129 c0 -12 8 -28 18 -35 16 -13 16 -13 0 -14 -25 0 -22 -20 2
-20 31 0 37 30 11 52 -18 14 -20 18 -7 18 9 0 16 5 16 10 0 6 -9 10 -20 10
-14 0 -20 -7 -20 -21z"/>
<path d="M1078 100 c-3 -17 -1 -33 4 -36 4 -3 8 11 8 30 0 44 -6 47 -12 6z"/>
<path d="M1332 95 c2 -46 18 -46 18 0 0 19 -4 35 -10 35 -5 0 -9 -16 -8 -35z"/>
</g>
</svg>
