<?xml version="1.0" standalone="no"?>
<!DOCTYPE svg PUBLIC "-//W3C//DTD SVG 20010904//EN"
 "http://www.w3.org/TR/2001/REC-SVG-20010904/DTD/svg10.dtd">
<svg version="1.0" xmlns="http://www.w3.org/2000/svg"
 width="512.000000pt" height="512.000000pt" viewBox="0 0 512.000000 512.000000"
 preserveAspectRatio="xMidYMid meet">

<g transform="translate(0.000000,512.000000) scale(0.100000,-0.100000)"
fill="#000000" stroke="none">
<path d="M3029 4983 c-15 -2 -58 -37 -110 -89 l-84 -84 0 -903 c0 -861 1 -904
19 -937 26 -49 64 -88 111 -113 l40 -22 890 -3 c808 -2 894 -1 934 14 60 23
110 70 137 129 l24 50 0 871 c0 984 3 941 -74 1018 -79 80 -29 76 -1000 75
-474 -1 -873 -4 -887 -6z"/>
<path d="M1565 3550 l-720 -720 611 0 c695 0 683 -1 759 75 77 76 76 65 73
758 l-3 607 -720 -720z"/>
<path d="M320 2280 c-23 -6 -56 -31 -106 -82 -67 -69 -72 -77 -79 -128 -3 -30
-5 -440 -3 -910 3 -812 4 -857 22 -890 26 -49 64 -88 111 -113 l40 -22 890 -3
c812 -2 894 -1 934 14 61 23 115 75 140 134 l21 50 -2 887 -3 888 -22 40 c-25
47 -74 95 -123 121 -33 18 -78 19 -910 21 -481 0 -891 -3 -910 -7z"/>
<path d="M3010 2281 c-69 -21 -121 -65 -156 -131 -18 -33 -19 -79 -22 -928
l-2 -892 21 -51 c26 -59 91 -121 147 -137 57 -17 1768 -17 1826 0 58 17 138
99 154 158 10 35 12 251 10 930 l-3 885 -28 47 c-31 53 -79 94 -134 114 -31
11 -207 13 -913 13 -481 -1 -886 -4 -900 -8z"/>
</g>
</svg>
