<?xml version="1.0" standalone="no"?>
<!DOCTYPE svg PUBLIC "-//W3C//DTD SVG 20010904//EN"
 "http://www.w3.org/TR/2001/REC-SVG-20010904/DTD/svg10.dtd">
<svg version="1.0" xmlns="http://www.w3.org/2000/svg"
 width="512.000000pt" height="512.000000pt" viewBox="0 0 512.000000 512.000000"
 preserveAspectRatio="xMidYMid meet">

<g transform="translate(0.000000,512.000000) scale(0.100000,-0.100000)"
fill="#000000" stroke="none">
<path d="M1944 5106 c-16 -13 -19 -29 -22 -130 l-4 -116 -551 0 c-366 0 -566
-4 -592 -11 -50 -14 -102 -63 -115 -109 -5 -19 -10 -151 -10 -292 l0 -258
1910 0 1910 0 0 258 c0 141 -5 273 -10 292 -13 46 -65 95 -115 109 -26 7 -226
11 -592 11 l-551 0 -4 116 c-3 101 -6 117 -22 130 -29 21 -1203 21 -1232 0z"/>
<path d="M930 3851 c0 -72 171 -3613 176 -3641 13 -74 69 -146 144 -186 34
-18 86 -19 1310 -19 1224 0 1276 1 1310 19 73 38 129 109 144 181 5 24 176
3568 176 3646 0 19 -26 19 -1630 19 -1588 0 -1630 0 -1630 -19z m1036 -790
c51 -33 49 18 52 -1086 2 -566 0 -1050 -3 -1074 -5 -30 -16 -54 -35 -73 -28
-28 -30 -28 -152 -28 -131 0 -151 7 -177 57 -8 16 -11 320 -11 1078 0 1167 -4
1101 63 1131 41 19 232 15 263 -5z m714 6 c24 -8 41 -23 53 -47 16 -33 17
-101 15 -1098 l-3 -1064 -33 -29 c-32 -28 -34 -29 -147 -29 -64 0 -125 5 -139
11 -58 27 -56 -19 -56 1126 0 978 1 1050 18 1083 22 45 62 59 172 59 47 0 101
-5 120 -12z m735 -1 c69 -29 65 40 65 -1131 0 -758 -3 -1062 -11 -1078 -26
-50 -46 -57 -175 -57 -139 0 -165 11 -184 78 -11 40 -15 2055 -4 2111 7 36 46
78 77 84 55 11 200 6 232 -7z"/>
</g>
</svg>
